<svg width="81" height="62" viewBox="0 0 81 62" fill="none" xmlns="http://www.w3.org/2000/svg">
<g id="instagram 1" clip-path="url(#clip0_18_124)">
<g id="Group">
<path id="Vector" d="M17.4024 0.181545C12.862 0.702248 9.27075 2.08272 5.99595 4.58936C2.62622 7.16866 0.791065 10.0507 0.174072 13.6714C-0.0632324 15.0882 -0.0632324 46.9116 0.174072 48.3284C0.791065 51.9491 2.62622 54.8312 5.99595 57.4104C9.36567 59.9897 13.1309 61.3944 17.8612 61.8667C19.7122 62.0483 61.2879 62.0483 63.1389 61.8667C67.8692 61.3944 71.6344 59.9897 75.0042 57.4104C78.3739 54.8312 80.209 51.9491 80.826 48.3284C81.0633 46.9116 81.0633 15.0882 80.826 13.6714C80.209 10.0507 78.3739 7.16866 75.0042 4.58936C71.6344 2.01006 67.8692 0.605373 63.1389 0.133106C61.1139 -0.0727501 19.1901 -0.0243149 17.4024 0.181545ZM64.8159 5.65498C66.6036 6.12725 66.9991 6.28467 68.4704 7.05967C70.8118 8.29483 72.6628 10.2202 73.5962 12.3878L74.1182 13.623V30.9999C74.1182 47.6261 74.1024 48.4132 73.8176 49.1034C72.7577 51.7312 70.9225 53.6808 68.2172 55.0854C67.0465 55.6909 66.034 56.0421 64.3887 56.4417L63.2022 56.7323H40.5001H17.7979L16.1842 56.3327C11.7545 55.2187 8.65376 52.7362 7.18247 49.1034C6.89771 48.4132 6.88189 47.6261 6.88189 30.9999C6.88189 14.3737 6.89771 13.5866 7.18247 12.8964C8.30571 10.1355 10.2674 8.12529 13.1942 6.72061C14.4282 6.12725 16.5481 5.49756 17.8612 5.32803C18.2567 5.27959 28.6665 5.24326 40.9747 5.25537L63.3604 5.26748L64.8159 5.65498Z" fill="black"/>
<path id="Vector_2" d="M61.3828 10.4623C60.2596 10.656 59.6109 10.9225 58.8516 11.5158C57.8232 12.3271 57.5068 12.9689 57.5068 14.2283C57.5068 15.1728 57.5701 15.4029 57.934 15.9236C58.8041 17.183 60.2754 17.9217 62.1106 18.0185C63.4553 18.0791 64.1672 17.9338 65.2904 17.3525C68.4387 15.7299 68.0748 12.0365 64.6576 10.7892C63.4869 10.3654 62.5535 10.2685 61.3828 10.4623Z" fill="black"/>
<path id="Vector_3" d="M37.9055 15.6331C30.2643 16.4444 23.7463 20.5132 21.3733 25.9866C20.5665 27.8515 20.345 28.9292 20.345 30.9999C20.345 33.0706 20.5665 34.1483 21.3733 36.0253C23.2875 40.4089 28.2235 44.1749 33.9821 45.6522C36.3868 46.2577 37.8106 46.4272 40.5001 46.4272C43.1895 46.4272 44.6133 46.2577 47.018 45.6522C52.7766 44.1749 57.7126 40.4089 59.6268 36.0253C60.4337 34.1483 60.6551 33.0706 60.6551 30.9999C60.6551 28.2874 59.9749 26.0714 58.4403 23.8554C55.5135 19.6534 50.4827 16.7593 44.376 15.8026C42.8573 15.5605 39.4085 15.4636 37.9055 15.6331ZM44.5659 21.1792C46.2586 21.603 46.7174 21.7726 48.0147 22.4386C50.6725 23.8069 52.4602 25.7081 53.4885 28.2147C53.8049 29.0019 53.8682 29.3772 53.8682 30.9999C53.8682 32.998 53.6784 33.7366 52.745 35.323C51.5743 37.3573 48.8057 39.4765 46.1321 40.3847C44.0754 41.087 43.1104 41.2323 40.5001 41.2323C37.8897 41.2323 36.9247 41.087 34.868 40.3847C32.1944 39.4765 29.4258 37.3573 28.2551 35.323C27.3217 33.7366 27.1319 32.998 27.1319 30.9999C27.1319 29.3772 27.1952 29.0019 27.5116 28.2147C28.0495 26.9069 28.5241 26.144 29.4258 25.139C31.2135 23.153 33.7131 21.7847 36.7823 21.0944C38.3485 20.7433 38.5858 20.719 40.9747 20.7675C42.8573 20.8038 43.2844 20.8522 44.5659 21.1792Z" fill="black"/>
</g>
</g>
<defs>
<clipPath id="clip0_18_124">
<rect width="81" height="62" fill="white"/>
</clipPath>
</defs>
</svg>
