<svg width="52" height="54" viewBox="0 0 52 54" fill="none" xmlns="http://www.w3.org/2000/svg">
<g id="telephone-call 3">
<g id="Group">
<path id="Vector" d="M11.832 3.68086C10.1563 4.68281 5.04766 10.8105 3.58516 13.5738C3.23985 14.2172 3.2297 14.2805 3.29063 14.9555C3.51407 17.2125 4.47891 20.4504 5.80938 23.4141C7.28204 26.673 9.77032 30.5754 12.5938 34.0664C14.0359 35.8488 17.418 39.3609 19.0938 40.8375C25.1672 46.1531 31.2914 49.4859 36.8063 50.4668C37.3039 50.5512 37.8422 50.625 38.0149 50.625C38.5938 50.625 40.1984 49.5492 42.6258 47.5453C45.7539 44.9508 48.2219 42.4195 48.6383 41.3648C48.9836 40.5105 48.3133 39.7195 45.8859 38.0426C42.3617 35.6273 39.0813 33.7078 37.5274 33.1699C36.8063 32.9168 36.7453 32.9062 36.3899 33.0645C35.8922 33.2754 35.5774 33.6023 34.1758 35.2793C33.5461 36.0281 32.825 36.8508 32.5813 37.1039L32.1242 37.5574L31.4742 37.3887C29.3617 36.8191 26.4977 35.2688 24.1211 33.402C23.075 32.5688 21.3078 30.7969 20.3328 29.584C18.4844 27.2953 16.7375 24.0047 16.0367 21.484L15.8133 20.6613L16.3617 20.0812C16.6664 19.7543 17.418 19.0477 18.0274 18.5098C19.4492 17.2652 19.957 16.7062 20.15 16.2211C20.3024 15.8625 20.2922 15.7781 20.0992 15.1453C19.5305 13.2258 15.3766 5.95898 13.8734 4.25039C13.0406 3.30117 12.6547 3.18515 11.832 3.68086Z" fill="black"/>
<path id="Vector_2" d="M27.625 5.0625V6.75H28.1125C30.225 6.75 33.0281 7.46719 35.2117 8.54297C38.9391 10.3887 41.7523 13.2469 43.5703 17.0332C44.7078 19.4062 45.1953 21.1887 45.4187 23.857L45.5406 25.3125H47.1453H48.75V24.8484C48.75 24.0363 48.557 22.2434 48.3336 21.041C47.7344 17.782 46.0586 14.059 44.068 11.5594C40.4219 6.98203 35.5469 4.2082 29.9812 3.5332C29.2703 3.44883 28.4477 3.375 28.1633 3.375H27.625V5.0625Z" fill="black"/>
<path id="Vector_3" d="M27.625 13.4684V15.1559L28.4273 15.2297C30.7937 15.4301 32.8555 16.4531 34.582 18.2883C36.2273 20.0285 37.1414 22.0957 37.3344 24.4898L37.4055 25.3125H39.0102H40.625V24.8801C40.625 23.4246 40.0055 20.8406 39.2945 19.3852C38.0555 16.8223 35.8617 14.5125 33.4648 13.268C31.9516 12.477 30.2656 11.9918 28.5492 11.8547L27.625 11.7809V13.4684Z" fill="black"/>
</g>
</g>
</svg>
