<svg width="75" height="66" viewBox="0 0 75 66" fill="none" xmlns="http://www.w3.org/2000/svg">
<g id="telephone-call 2">
<g id="Group">
<path id="Vector" d="M17.0654 4.49883C14.6484 5.72344 7.28024 13.2129 5.17087 16.5902C4.67282 17.3766 4.65817 17.4539 4.74606 18.2789C5.06833 21.0375 6.45993 24.9949 8.37888 28.6172C10.5029 32.6004 14.0918 37.3699 18.164 41.6367C20.2441 43.8152 25.122 48.1078 27.539 49.9125C36.2988 56.4094 45.1318 60.4828 53.0859 61.6816C53.8037 61.7848 54.58 61.875 54.8291 61.875C55.664 61.875 57.9785 60.5602 61.4795 58.1109C65.9912 54.9398 69.5508 51.8461 70.1513 50.557C70.6494 49.5129 69.6826 48.5461 66.1816 46.4965C61.0986 43.5445 56.3672 41.1984 54.1259 40.541C53.0859 40.2316 52.998 40.2188 52.4853 40.4121C51.7675 40.6699 51.3134 41.0695 49.292 43.1191C48.3838 44.0344 47.3437 45.0398 46.9922 45.3492L46.333 45.9035L45.3955 45.6973C42.3486 45.0012 38.2177 43.1063 34.79 40.8246C33.2812 39.8062 30.7324 37.6406 29.3261 36.1582C26.6601 33.3609 24.1406 29.3391 23.1299 26.2582L22.8076 25.2527L23.5986 24.5438C24.0381 24.1441 25.122 23.2805 26.0009 22.623C28.0517 21.102 28.7842 20.4188 29.0625 19.8258C29.2822 19.3875 29.2675 19.2844 28.9892 18.5109C28.1689 16.1648 22.1777 7.2832 20.0097 5.19492C18.8086 4.03477 18.2519 3.89297 17.0654 4.49883Z" fill="black"/>
<path id="Vector_2" d="M39.8438 6.1875V8.25H40.5469C43.5938 8.25 47.6367 9.12656 50.7861 10.4414C56.1621 12.6973 60.2197 16.1906 62.8418 20.8184C64.4824 23.7188 65.1855 25.8973 65.5078 29.1586L65.6836 30.9375H67.998H70.3125V30.3703C70.3125 29.3777 70.0342 27.1863 69.7119 25.7168C68.8477 21.7336 66.4307 17.1832 63.5596 14.1281C58.3008 8.53359 51.2695 5.14336 43.2422 4.31836C42.2168 4.21523 41.0303 4.125 40.6201 4.125H39.8438V6.1875Z" fill="black"/>
<path id="Vector_3" d="M39.8438 16.4613V18.5238L41.001 18.6141C44.4141 18.859 47.3877 20.1094 49.8779 22.3523C52.251 24.4793 53.5693 27.0059 53.8477 29.932L53.9502 30.9375H56.2646H58.5938V30.409C58.5938 28.6301 57.7002 25.4719 56.6748 23.693C54.8877 20.5605 51.7236 17.7375 48.2666 16.2164C46.084 15.2496 43.6523 14.6566 41.1768 14.4891L39.8438 14.3988V16.4613Z" fill="black"/>
</g>
</g>
</svg>
